<?xml version="1.0" encoding="UTF-8"?>
<svg id="Layer_1" xmlns="http://www.w3.org/2000/svg" version="1.1" viewBox="0 0 105 30.18">
  <defs>
    <style>
      .st0 {
        fill: #bdb08c;
      }
    </style>
  </defs>
  <rect class="st0" x="38.06" y=".15" width="1.2" height="30.13"/>
  <g>
    <path class="st0" d="M46.95,6.68h.38c.12-.25.2-.6.25-1.05.05-.45.09-1.09.11-1.92l.04-1.77h3.34v4.74h.51v2.18h-1.03v-1.22h-2.58v1.22h-1.03v-2.18ZM50.02,6.72v-3.84h-1.3l-.02,1.08c-.02.66-.07,1.21-.13,1.65-.06.45-.16.81-.3,1.11h1.76Z"/>
    <path class="st0" d="M52.3,1.94h2.88v.91h-1.85v1.37h1.57l-.1.91h-1.47v1.6h2.15l-.1.91h-3.07V1.94Z"/>
    <path class="st0" d="M56.12,1.94h1.81c.54,0,.95.16,1.24.48.28.32.43.77.43,1.36s-.15,1.03-.44,1.35c-.3.33-.7.49-1.22.49h-.76v2.03h-1.05V1.94ZM57.9,4.71c.21,0,.36-.07.45-.22.09-.15.14-.38.14-.71s-.05-.56-.14-.71c-.09-.15-.24-.22-.45-.22h-.73v1.86h.73Z"/>
    <path class="st0" d="M61.02,4.54l-1.03-1.91v-.68h.85l1.08,2.26h.51V1.94h1.06v2.26h.51l1.1-2.26h.81v.68l-1.03,1.89,1.17,3.14h-1.15l-.89-2.49h-.54v2.49h-1.06v-2.49h-.57l-.9,2.49h-1.11l1.18-3.1Z"/>
    <path class="st0" d="M67.76,1.92h1.35l1.49,5.73h-1.11l-.27-1.19h-1.63l-.28,1.19h-1.04l1.48-5.73ZM69.01,5.55l-.57-2.5h-.07l-.58,2.5h1.21Z"/>
    <path class="st0" d="M71.19,1.94h1.88c.5,0,.9.13,1.18.39s.42.62.42,1.07c0,.56-.22.95-.66,1.18v.07c.54.22.82.67.82,1.34,0,.51-.15.91-.46,1.21-.3.3-.72.45-1.24.45h-1.95V1.94ZM73.03,4.25c.19,0,.34-.06.43-.17.09-.11.14-.3.14-.55s-.05-.41-.14-.53c-.09-.11-.23-.17-.43-.17h-.82v1.41h.82ZM73.12,6.75c.21,0,.36-.07.46-.2.1-.13.15-.34.15-.62s-.05-.48-.15-.61c-.1-.13-.26-.19-.46-.19h-.91v1.61h.91Z"/>
    <path class="st0" d="M78.38,5.16h-1.68v2.48h-1.06V1.94h1.06v2.26h1.68V1.94h1.06v5.7h-1.06v-2.48Z"/>
    <path class="st0" d="M81.51,1.92h1.35l1.49,5.73h-1.11l-.27-1.19h-1.63l-.28,1.19h-1.04l1.48-5.73ZM82.77,5.55l-.57-2.5h-.07l-.58,2.5h1.21Z"/>
    <path class="st0" d="M50.03,12.68h-1.68v4.74h-1.06v-5.7h3.8v5.7h-1.06v-4.74Z"/>
    <path class="st0" d="M52.11,11.72h1.81c.54,0,.95.16,1.24.48.28.32.43.77.43,1.36s-.15,1.03-.44,1.35c-.3.33-.7.49-1.22.49h-.76v2.03h-1.05v-5.7ZM53.88,14.49c.21,0,.36-.07.45-.22.09-.15.14-.38.14-.71s-.05-.56-.14-.71c-.09-.15-.24-.22-.45-.22h-.73v1.86h.73Z"/>
    <path class="st0" d="M56.31,11.72h1.04l-.02,1.89-.13,1.95h.11l1.77-3.84h1.05v5.7h-1.05l.02-1.91.13-1.95h-.11l-1.78,3.87h-1.04v-5.7Z"/>
    <path class="st0" d="M61.16,11.72h1.04v2.26h.61l1.14-2.26h.81v.68l-1.08,1.94,1.28,3.09h-1.14l-1.01-2.48h-.61v2.48h-1.04v-5.7Z"/>
    <path class="st0" d="M65.74,16.75c-.36-.5-.55-1.23-.55-2.18s.19-1.66.56-2.17c.37-.51.91-.76,1.6-.76s1.25.25,1.61.75c.36.5.54,1.23.54,2.18s-.19,1.66-.56,2.17c-.37.51-.91.76-1.6.76s-1.25-.25-1.61-.75ZM66.56,16.07c.17.32.43.48.79.48s.62-.16.8-.48c.17-.32.26-.82.26-1.5s-.08-1.19-.26-1.5c-.17-.32-.44-.48-.8-.48s-.62.16-.79.48c-.17.32-.26.82-.26,1.5s.09,1.18.26,1.5Z"/>
    <path class="st0" d="M70.32,11.72h1.81c.54,0,.95.16,1.24.48.28.32.43.77.43,1.36s-.15,1.03-.44,1.35c-.3.33-.7.49-1.22.49h-.76v2.03h-1.05v-5.7ZM72.1,14.49c.21,0,.36-.07.45-.22.09-.15.14-.38.14-.71s-.05-.56-.14-.71c-.09-.15-.24-.22-.45-.22h-.73v1.86h.73Z"/>
    <path class="st0" d="M73.88,16.46h.38c.12-.25.2-.6.25-1.05.05-.45.09-1.09.11-1.92l.04-1.77h3.34v4.74h.51v2.18h-1.03v-1.22h-2.58v1.22h-1.03v-2.18ZM76.95,16.5v-3.84h-1.3l-.02,1.08c-.02.66-.07,1.21-.13,1.65-.06.45-.16.81-.3,1.11h1.76Z"/>
    <path class="st0" d="M79.44,16.75c-.36-.5-.55-1.23-.55-2.18s.19-1.66.56-2.17c.37-.51.91-.76,1.6-.76s1.25.25,1.61.75c.36.5.54,1.23.54,2.18s-.19,1.66-.56,2.17c-.37.51-.91.76-1.6.76s-1.25-.25-1.61-.75ZM80.26,16.07c.17.32.43.48.79.48s.62-.16.8-.48c.17-.32.26-.82.26-1.5s-.08-1.19-.26-1.5c-.17-.32-.44-.48-.8-.48s-.62.16-.79.48c-.17.32-.26.82-.26,1.5s.09,1.18.26,1.5Z"/>
    <path class="st0" d="M86.75,14.94h-1.68v2.48h-1.06v-5.7h1.06v2.26h1.68v-2.26h1.06v5.7h-1.06v-2.48Z"/>
    <path class="st0" d="M91.57,14.94h-1.68v2.48h-1.06v-5.7h1.06v2.26h1.68v-2.26h1.06v5.7h-1.06v-2.48Z"/>
    <path class="st0" d="M94.7,11.69h1.35l1.49,5.73h-1.11l-.27-1.19h-1.63l-.28,1.19h-1.04l1.48-5.73ZM95.96,15.33l-.57-2.5h-.07l-.58,2.5h1.21Z"/>
    <path class="st0" d="M47.63,22.17c.37-.5.89-.75,1.57-.75.64,0,1.11.19,1.43.56v.86h-.75c-.15-.31-.4-.46-.75-.46-.32,0-.56.15-.71.46-.15.31-.23.8-.23,1.48s.08,1.21.24,1.53c.16.32.41.48.76.48.18,0,.37-.04.55-.13s.35-.22.5-.38l.66.68c-.18.25-.42.44-.73.58-.31.14-.64.21-1.01.21-.67,0-1.19-.24-1.54-.73-.36-.49-.53-1.2-.53-2.13,0-1,.19-1.75.56-2.25Z"/>
    <path class="st0" d="M51.56,26.04c.11-.17.19-.44.24-.82s.08-.99.1-1.84l.05-1.89h3.26v5.7h-1.06v-4.74h-1.19l-.03,1.07c-.03.85-.07,1.51-.14,2-.07.49-.17.86-.32,1.11-.14.26-.34.44-.59.56h-.77l-.1-.83c.25-.05.43-.16.55-.32Z"/>
    <path class="st0" d="M55.91,21.49h.93l1.04,3.78h.14l.79-3.78h.9v.87l-1,3.47c-.12.4-.25.71-.4.92-.15.21-.34.36-.58.44h-1.15l-.1-.96h.56c.11,0,.2,0,.29-.02l-1.41-3.84v-.88Z"/>
    <path class="st0" d="M61.13,24.09l-1.03-1.92v-.68h.85l1.08,2.26h.51v-2.26h1.06v2.26h.51l1.1-2.26h.81v.68l-1.03,1.89,1.17,3.14h-1.15l-.89-2.49h-.54v2.49h-1.06v-2.49h-.57l-.9,2.49h-1.11l1.18-3.1Z"/>
    <path class="st0" d="M66.8,21.49h3.1v.93h-2.06v1.28h.85c.54,0,.95.15,1.22.45.28.3.42.73.42,1.3s-.14.98-.43,1.29c-.29.31-.69.46-1.21.46h-1.9v-5.7ZM68.65,26.27c.21,0,.36-.06.44-.19s.13-.34.13-.63-.04-.51-.13-.64c-.09-.13-.24-.19-.44-.19h-.81v1.65h.81Z"/>
    <path class="st0" d="M72.14,21.47h1.35l1.49,5.73h-1.11l-.27-1.19h-1.63l-.28,1.19h-1.04l1.48-5.73ZM73.4,25.1l-.57-2.5h-.07l-.58,2.5h1.21Z"/>
    <path class="st0" d="M76.89,21.49h.93l1.04,3.78h.14l.79-3.78h.9v.87l-1,3.47c-.12.4-.25.71-.4.92-.15.21-.34.36-.58.44h-1.15l-.1-.96h.56c.11,0,.2,0,.29-.02l-1.41-3.84v-.88Z"/>
    <path class="st0" d="M81.32,21.49h1.04v2.26h.61l1.14-2.26h.81v.68l-1.08,1.94,1.28,3.09h-1.14l-1.01-2.48h-.61v2.48h-1.04v-5.7Z"/>
    <path class="st0" d="M85.72,21.49h1.81c.54,0,.95.16,1.24.48.28.32.43.77.43,1.36s-.15,1.03-.44,1.35c-.3.33-.7.49-1.22.49h-.76v2.03h-1.05v-5.7ZM87.49,24.26c.21,0,.36-.07.45-.22.09-.15.14-.38.14-.71s-.05-.56-.14-.71c-.09-.15-.24-.22-.45-.22h-.73v1.86h.73Z"/>
    <path class="st0" d="M90.68,21.47h1.35l1.49,5.73h-1.11l-.27-1.19h-1.63l-.28,1.19h-1.04l1.48-5.73ZM91.93,25.1l-.57-2.5h-.07l-.58,2.5h1.21Z"/>
    <path class="st0" d="M93.46,20.76c-.11-.11-.17-.26-.17-.44s.06-.33.17-.44.26-.17.45-.17.34.06.46.17c.11.11.17.26.17.44s-.06.33-.17.44c-.12.11-.27.17-.46.17s-.33-.06-.45-.17ZM94.2,21.49h1.06v5.7h-1.06v-5.7ZM95.09,20.76c-.11-.11-.17-.26-.17-.44s.06-.33.17-.44.26-.17.45-.17.34.06.46.17c.11.11.17.26.17.44s-.06.33-.17.44c-.12.11-.27.17-.46.17s-.33-.06-.45-.17Z"/>
    <path class="st0" d="M99.09,24.71h-1.68v2.48h-1.06v-5.7h1.06v2.26h1.68v-2.26h1.06v5.7h-1.06v-2.48Z"/>
    <path class="st0" d="M101.17,21.49h1.04l-.02,1.89-.13,1.95h.11l1.77-3.84h1.05v5.7h-1.05l.02-1.91.13-1.96h-.11l-1.78,3.87h-1.04v-5.7Z"/>
  </g>
  <path class="st0" d="M11.1,8.95L6.84.2h16.46l-4.27,8.75c-.07-.05-.15-.09-.24-.1,0,0,0,0,0-.01,0-.01-.01-.03-.02-.05,0-.03-.01-.05-.02-.08-.09-.25-.32-.4-.53-.34,0,0-.01,0-.02,0-.04.01-.08.04-.11.06-.02-.02-.04-.05-.05-.07l3.42-7h-12.77l3.42,7s-.04.05-.05.07c-.03-.03-.07-.05-.11-.06,0,0,0,0-.01,0-.22-.06-.45.08-.54.34,0,.02-.01.05-.02.07,0,.02-.02.04-.02.06h0c-.08.02-.16.06-.23.1ZM8.44,19.28c-.09-.25-.07-.45.06-.59,0,0,0,0,0,0-.09-.12-.15-.26-.16-.4-.01,0-.03-.01-.04-.02-.02,0-.05-.01-.07-.02-.01,0-.02-.01-.03-.02l-7.05,3.44v-12.76l6.76,3.3c.02-.08.06-.15.12-.23.16-.21.34-.3.52-.27,0,0,0,0,.01,0,.05-.13.12-.26.23-.34,0,0,0-.01,0-.02L0,7.04v16.46l8.48-4.14s-.03-.05-.04-.09ZM19.03,21.93c-.29.27-.66.2-.94.09-.02.05-.04.09-.07.13l3.44,7.05h-12.77l3.43-7.04s-.06-.09-.08-.14c-.28.11-.65.19-.94-.09-.04-.04-.07-.07-.1-.11l-4.15,8.51h16.46l-4.16-8.52s-.06.07-.1.11ZM21.34,11.33s0,.01,0,.02c.1.09.18.21.23.34,0,0,0,0,.01,0,.19-.03.36.06.52.27.06.07.09.15.12.23l6.77-3.3v12.77l-7.06-3.44s-.02.01-.03.02c-.03.01-.05.02-.08.03-.02,0-.03.02-.04.02-.01.14-.08.28-.16.4,0,0,0,0,0,0,.13.14.15.34.06.59-.01.03-.02.06-.04.08l8.49,4.14V7.04l-8.79,4.29ZM7.89,14.58c.08.11.21.14.28.09,0,0,0,0,0,0,.07-.06.06-.18-.01-.29-.02-.02-.03-.04-.05-.05-.01-.02-.02-.04-.04-.06-.08-.11-.21-.14-.28-.09,0,0,0,0,0,0-.07.06-.06.18.01.29.02.02.03.04.05.05,0,.02.03.04.04.06ZM21.97,14.38c-.08.1-.09.23-.01.29,0,0,0,0,0,0,.07.06.2.02.28-.09.01-.02.03-.04.04-.06.02-.02.04-.03.05-.05.08-.1.08-.23.01-.29,0,0,0,0,0,0-.07-.06-.2-.02-.28.09-.02.02-.03.04-.04.06-.02.02-.03.03-.05.05ZM21.9,12.12c-.33-.43-.49.05-.49.05,0,0-.03-.7-.43-.7.05-.03.1-.1.12-.19,0-.02,0-.05,0-.07,0-.02.02-.05.02-.07.02-.13-.03-.24-.12-.26,0,0,0,0,0,0-.09-.02-.18.08-.21.21,0,.02,0,.05,0,.07-.01.02-.02.04-.02.07-.02.12.03.23.11.26-.06.02-.12.04-.16.08-.04-.58.02-1.14-.28-1.35-.43-.3-.36.21-.48.17-.12-.04.19-.9-.31-1.13-.49-.23-.41.28-.41.28,0,0-.35-.6-.7-.42.02-.05.03-.13,0-.2,0-.02-.01-.05-.03-.07,0-.02,0-.05-.01-.07-.04-.12-.14-.2-.23-.17,0,0,0,0,0,0-.09.03-.13.15-.09.28,0,.02.02.05.03.07,0,.03,0,.05.01.07.04.11.12.18.2.18-.04.04-.07.09-.09.14-.3-.49-.51-1.01-.87-1.06-.52-.07-.22.35-.35.38-.13.02-.25-.88-.8-.86s-.23.44-.23.44c0,0-.67-.42-.85.02-.18.44.34.72.55.68,0,0-.06.03-.12.09-.03-.06-.11-.11-.21-.12-.02,0-.05,0-.07,0-.02,0-.05-.01-.07-.02-.13-.01-.24.05-.25.14,0,0,0,0,0,0,0,.09.09.18.22.19.02,0,.05,0,.07,0,.02.01.05.01.07.02.05,0,.1,0,.15-.02,0,.07.02.15.1.25.27.34.88-.17,1.04-.03.07.06-.35.27.07.64.23.16.71,0,1.22-.09.02.02.03.03.05.04.02.01.04.03.06.04.02.02.03.03.06.05.05.03.09.05.14.05-.04.06-.05.14-.03.26.08.43.86.26.94.46.03.08-.43.08-.23.6.12.25.62.33,1.11.49,0,.03.02.05.03.08.01.02.02.04.04.06,0,.03.02.04.03.07.03.05.06.08.1.11-.06.04-.11.1-.15.22-.13.42.64.63.62.84-.01.09-.42-.13-.49.43,0,.28.39.58.75.94-.01.03-.02.07-.02.11,0,.02,0,.05,0,.07,0,.03,0,.05-.01.07,0,.05.01.1.04.14-.07,0-.15.04-.23.12-.31.31.26.86.14,1.04-.05.07-.3-.32-.63.14-.14.25.07.72.22,1.23,0,.01-.01.02-.02.03-.01.02-.02.04-.03.07-.02.02-.03.04-.04.06-.03.05-.04.1-.04.14-.06-.03-.15-.04-.26,0-.42.13-.18.88-.37.98-.08.04-.12-.42-.62-.17-.24.15-.27.68-.39,1.2,0,0-.02,0-.03.01-.02.01-.04.03-.06.04-.03,0-.04.02-.07.03-.04.03-.08.07-.1.11-.04-.06-.11-.1-.23-.13-.43-.09-.57.7-.78.69-.09,0,.09-.43-.47-.45-.22.02-.43.28-.67.59-.13-.16-.25-.29-.35-.38h-.75c-.07-.04-.14-.07-.21-.07-.08,0-.16.02-.24.07h-.72c-.1.1-.22.23-.35.38-.24-.31-.45-.57-.67-.59-.56.02-.38.44-.47.45-.21,0-.35-.78-.78-.69-.12.02-.19.07-.23.13-.02-.04-.05-.08-.1-.11-.02-.01-.04-.03-.07-.03-.02-.02-.04-.03-.06-.04,0,0-.02,0-.03-.01-.11-.52-.14-1.05-.39-1.2-.51-.25-.54.21-.62.17-.19-.1.05-.85-.37-.98-.12-.03-.2-.03-.26,0,0-.05-.01-.1-.04-.14-.01-.02-.02-.04-.04-.06,0-.02-.02-.04-.03-.07,0-.01-.01-.02-.02-.03.15-.5.36-.98.22-1.23-.33-.46-.58-.07-.63-.14-.12-.17.45-.73.14-1.04-.09-.09-.16-.12-.23-.12.02-.04.04-.09.04-.14,0-.03,0-.05-.01-.07,0-.02,0-.05,0-.07,0-.04,0-.08-.02-.11.36-.36.76-.67.75-.94-.07-.56-.48-.34-.49-.43-.02-.21.74-.42.62-.84-.03-.12-.09-.18-.15-.22.04-.02.07-.06.1-.11.01-.03.02-.04.03-.07.01-.02.03-.04.04-.06.01-.03.02-.05.03-.08.49-.15.98-.24,1.11-.49.2-.53-.26-.52-.23-.6.08-.2.85-.03.94-.46.02-.12,0-.2-.03-.26.05,0,.09-.02.14-.05.02-.02.04-.03.06-.05.02,0,.04-.02.06-.04.02-.01.04-.03.05-.04.51.09.99.25,1.22.09.42-.38,0-.58.07-.64.16-.14.77.37,1.04.03.08-.09.1-.18.1-.25.04.02.09.03.15.02.03,0,.05,0,.07-.02.02,0,.05,0,.07,0,.13-.01.23-.1.22-.19,0,0,0,0,0,0-.01-.09-.12-.15-.25-.14-.03,0-.05,0-.07.02-.02,0-.05,0-.07,0-.1.01-.18.06-.21.12-.06-.06-.12-.09-.12-.09.21.03.73-.25.55-.68-.18-.44-.85-.02-.85-.02,0,0,.31-.41-.23-.44-.54-.03-.67.88-.8.86s.17-.44-.35-.38c-.36.05-.57.57-.87,1.06-.02-.05-.05-.09-.09-.14.08,0,.17-.07.2-.18,0-.03.01-.05.01-.07.01-.02.02-.04.03-.07.04-.13,0-.25-.09-.28,0,0,0,0,0,0-.09-.03-.19.05-.23.17,0,.02-.01.05-.01.07-.01.02-.02.05-.03.07-.02.07-.02.15,0,.2-.34-.18-.7.42-.7.42,0,0,.08-.5-.41-.28-.49.23-.19,1.09-.31,1.13-.12.04-.05-.47-.48-.17-.29.21-.24.77-.28,1.35-.04-.03-.1-.06-.16-.08.08-.02.13-.14.11-.26,0-.03,0-.05-.02-.07,0-.02,0-.05,0-.07-.02-.13-.12-.22-.21-.21h0c-.09.02-.14.13-.12.26,0,.02.01.05.02.07,0,.02,0,.05,0,.07.02.09.06.15.12.19-.39,0-.43.7-.43.7,0,0-.16-.49-.49-.05-.33.43.34,1.05.25,1.14-.09.09-.26-.39-.51.07-.17.33.16.81.4,1.36-.07-.01-.14-.01-.22.01-.45.13-.11.84-.11.84,0,0-.37-.35-.46.19-.08.54.8.76.77.88-.03.12-.42-.22-.41.31,0,.36.5.62.96.97-.05.01-.09.03-.14.06,0-.08-.06-.16-.16-.2-.03,0-.05-.02-.07-.02-.02-.01-.04-.02-.06-.03-.12-.05-.25-.03-.29.06,0,0,0,0,0,0-.03.08.03.19.15.24.02,0,.05.02.07.02.02.02.04.02.06.03.06.03.12.03.17.02-.2.32.35.73.35.73,0,0-.49-.13-.32.38s1.06.29,1.09.42c.03.13-.48,0-.22.46.18.31.74.31,1.31.41-.04.03-.08.07-.1.12-.03-.07-.13-.12-.24-.11-.03,0-.05,0-.07.02-.02,0-.05,0-.07,0-.13.01-.23.09-.23.19,0,0,0,0,0,0,0,.09.12.15.25.15.03,0,.05,0,.07-.02.02,0,.05,0,.07,0,.06,0,.12-.03.16-.06-.04.39.65.49.65.49,0,0-.5.11-.1.48.4.37,1.08-.24,1.16-.14.08.1-.42.23.03.51.15.1.35.08.58.01-.03.08-.05.17-.07.25.39.22.94.41,1.36.16.03-.14.05-.27.08-.41l.13-.03c-.05.09-.05.19.01.25.08.07.21.03.31-.08,0,0,0,0,0,0,.02-.02.03-.04.05-.07,0,0,0,0,0,0,.02-.01.04-.03.06-.05h0s.04-.06.05-.08c.01-.03.02-.06.03-.09h.02s.02,0,.02,0c0,.03.01.06.03.08.01.03.03.05.05.08h0s.04.05.06.06c0,0,0,0,0,0,.01.02.03.05.05.07,0,0,0,0,0,0,.09.11.23.14.31.08.05-.04.06-.12.03-.21l.12.04c.03.12.05.24.07.36.42.25.97.06,1.36-.16-.02-.09-.05-.17-.07-.25.23.07.43.08.58-.01.44-.28-.06-.41.03-.51.08-.1.76.51,1.16.14.4-.37-.1-.48-.1-.48,0,0,.7-.1.65-.49.04.03.1.05.16.06.02,0,.05,0,.07,0,.02,0,.05.01.07.02.13,0,.24-.06.25-.15,0,0,0,0,0,0,0-.09-.1-.18-.23-.19-.02,0-.05,0-.07,0-.02-.01-.05-.01-.07-.02-.11,0-.21.04-.24.11-.03-.05-.06-.09-.1-.12.57-.1,1.14-.1,1.31-.41.26-.46-.25-.34-.22-.46.03-.13.92.1,1.09-.42.18-.51-.32-.38-.32-.38,0,0,.56-.41.35-.73.05,0,.11,0,.17-.02.02,0,.05-.02.06-.03.02,0,.05-.01.07-.02.12-.05.18-.16.15-.24,0,0,0,0,0,0-.04-.08-.17-.11-.29-.06-.02,0-.04.02-.06.03-.03,0-.05.01-.07.02-.1.04-.16.13-.16.2-.05-.03-.09-.05-.14-.06.46-.35.95-.61.96-.97.01-.53-.38-.18-.41-.31-.03-.12.85-.35.77-.88-.08-.54-.46-.19-.46-.19,0,0,.34-.71-.11-.84-.08-.02-.15-.03-.22-.01.24-.55.57-1.03.4-1.36-.24-.47-.42.02-.51-.07-.09-.09.58-.71.25-1.14ZM15.42,11.4c-.01.8-.11,1.61-.12,2.41-.01.74.21,1.45.48,2.14.09.19.19.38.29.56l.29-.06c.26-.05.44-.31.38-.57-.05-.23-.25-.39-.47-.39h-.11s.23-1.96.23-1.96c.07-.88.53-1.64,1.19-2.14.11-.09.23-.17.36-.23v6.99h-1.61c-.12.65-.48,1.23-.98,1.61-.12.09-.22.19-.29.32-.07-.13-.17-.24-.29-.32-.5-.39-.86-.96-.98-1.61h-1.61v-6.99c.13.07.25.15.36.23.66.5,1.12,1.27,1.19,2.14l.23,1.97h-.11c-.22-.01-.42.15-.47.38-.05.26.12.52.38.57l.29.06c.1-.19.19-.38.29-.56.27-.68.5-1.39.48-2.14,0-.8-.11-1.61-.12-2.41,0-.37.13-.7.36-.96h0c.23.25.36.59.36.96ZM12.65,15.74h.27c.07-.27.25-.5.5-.62l-.19-1.62c-.06-.5-.27-.96-.58-1.33v3.57ZM13.84,16.96l-.23-.05c-.33-.09-.59-.35-.68-.69h-.27v1.45h1.09c0-.24.03-.48.09-.7ZM17.2,15.74h.27v-3.57c-.31.37-.52.82-.58,1.33l-.19,1.62c.25.13.43.35.5.62ZM16.3,16.96c.06.22.09.46.09.7h1.09v-1.45h-.27c-.09.33-.35.6-.68.69l-.23.05ZM14.22,17.67h.6c0-.3-.22-.56-.52-.6-.05.19-.09.39-.09.6ZM14.83,18.15h-.55c.09.39.28.74.55,1.02v-1.02ZM15.86,18.15h-.55v1.02c.27-.28.46-.63.55-1.02ZM15.31,17.67h.6c0-.21-.03-.41-.09-.6-.29.04-.52.29-.52.6ZM15.06,15.43c-.13.42-.31.82-.53,1.2.21.06.4.19.53.35.13-.17.32-.29.53-.35-.22-.38-.4-.78-.53-1.2Z"/>
</svg>
